<?xml version="1.0" encoding="UTF-8" standalone="no" ?>
<!DOCTYPE svg PUBLIC "-//W3C//DTD SVG 1.1//EN" "http://www.w3.org/Graphics/SVG/1.1/DTD/svg11.dtd">
<svg xmlns="http://www.w3.org/2000/svg" xmlns:xlink="http://www.w3.org/1999/xlink" version="1.1" width="500" height="500" viewBox="0 0 500 500" xml:space="preserve">
<desc>Created with Fabric.js 3.6.3</desc>
<defs>
</defs>
<rect x="0" y="0" width="100%" height="100%" fill="#ffffff"></rect>
<g transform="matrix(1 0 0 1 170 235.4032496307237)" style=""  ><path fill="#646464" opacity="1" d="M-79.21-32.37L-115.29-32.37L-115.29-24.40L-79.21-24.40ZM-107.32-0.07L-86.76-0.07L-86.76-8.04L-115.29-8.04L-115.29 26.36L-107.32 26.36Z"/><path fill="#646464" opacity="1" d="M-63.27-32.37L-70.82-32.37L-70.82-23.98L-63.27-23.98ZM-78.37 18.81L-78.37 26.36L-55.72 26.36L-55.72 18.81L-63.27 18.81L-63.27-14.75L-76.69-14.75L-76.69-7.20L-70.82-7.20L-70.82 18.81Z"/><path fill="#646464" opacity="1" d="M-41.46-14.75L-54.88-14.75L-54.88-7.20L-49.01-7.20L-49.01 26.36L-41.46 26.36L-41.46-3.85C-41.46-3.85-38.10-8.04-33.07-8.04C-29.29-8.04-26.35-5.11-26.35-1.33L-26.35 26.36L-18.80 26.36L-18.80-1.33C-18.80-9.72-24.68-15.59-31.39-15.59C-38.10-15.59-41.46-10.56-41.46-10.56Z"/><path fill="#646464" opacity="1" d="M-5.38 12.09C-5.38 20.48 0.49 26.36 8.88 26.36L13.08 26.36L13.08 18.81L8.88 18.81C5.11 18.81 2.17 15.87 2.17 12.09L2.17-7.20L10.56-7.20L10.56-14.75L2.17-14.75L2.17-28.18L-5.38-28.18L-5.38-14.75L-12.93-14.75L-12.93-7.20L-5.38-7.20Z"/><path fill="#646464" opacity="1" d="M29.02-14.75L15.60-14.75L15.60-7.20L21.47-7.20L21.47 26.36L29.02 26.36L29.02-3.85C29.02-3.85 32.38-8.04 37.41-8.04C41.18-8.04 44.12-5.11 44.12-1.33L44.12 26.36L51.67 26.36L51.67-1.33C51.67-9.72 45.80-15.59 39.09-15.59C32.38-15.59 29.02-10.56 29.02-10.56Z"/><path fill="#646464" opacity="1" d="M61.74 12.09C61.74 20.48 67.61 26.36 76.00 26.36L89.43 26.36L89.43 18.81L76.00 18.81C72.23 18.81 69.29 15.87 69.29 12.09L69.29 10.00L91.94 10.00L91.94-0.49C91.94-9.30 85.65-15.59 76.84-15.59C68.03-15.59 61.74-9.30 61.74-0.49ZM76.84-8.04C81.04-8.04 84.39-4.69 84.39-0.49L84.39 2.86L69.29 2.86L69.29-0.49C69.29-4.69 72.65-8.04 76.84-8.04Z"/><path fill="#646464" opacity="1" d="M117.95 26.36L117.95 18.81L110.40 18.81L110.40-3.01C110.40-3.01 113.76-7.20 118.79-7.20L123.83-7.20L123.83-15.59L120.47-15.59C113.76-15.59 110.40-10.56 110.40-10.56L110.40-14.75L96.98-14.75L96.98-7.20L102.85-7.20L102.85 18.81L95.30 18.81L95.30 26.36Z"/><path fill="#646464" opacity="1" d="M144.05 14.19L134.73-14.75L123.83-14.75L123.83-7.20L129.28-7.20L140.61 25.94L138.93 31.39C138.00 34.33 135.99 36.42 132.22 36.42L129.70 36.42L129.70 43.98L132.22 43.98C139.77 43.98 143.96 39.78 146.48 31.39L160.32-14.75L152.35-14.75Z"/></g><g transform="matrix(1 0 0 1 175 294.4779941907894)" style=""  ><path fill="#646464" opacity="1" d="M-111.78 3.23L-117.70 3.23L-117.70 0.78L-112.73 0.78C-112.30 0.78-112.19 0.58-112.19 0.24L-112.19-1.20C-112.19-1.54-112.30-1.74-112.73-1.74L-117.70-1.74L-117.70-3.76L-112.10-3.76C-111.67-3.76-111.56-3.97-111.56-4.30L-111.56-5.84C-111.56-6.17-111.67-6.38-112.10-6.38L-120.09-6.38C-120.52-6.38-120.63-6.17-120.63-5.84L-120.63 5.29C-120.63 5.62-120.52 5.83-120.09 5.83L-111.78 5.83C-111.36 5.83-111.24 5.62-111.24 5.29L-111.24 3.77C-111.24 3.43-111.36 3.23-111.78 3.23Z"/><path fill="#646464" opacity="1" d="M-91.85-6.38L-93.81-6.38C-94.31-6.38-94.44-6.23-94.59-5.78L-97.09 1.89L-99.62-5.78C-99.76-6.23-99.89-6.38-100.38-6.38L-102.43-6.38C-102.79-6.38-102.86-6.08-102.77-5.84L-98.78 5.27C-98.56 5.75-98.43 5.83-98.02 5.83L-96.24 5.83C-95.83 5.83-95.70 5.75-95.48 5.27L-91.51-5.84C-91.42-6.08-91.49-6.38-91.85-6.38Z"/><path fill="#646464" opacity="1" d="M-73.52 3.23L-79.44 3.23L-79.44 0.78L-74.47 0.78C-74.04 0.78-73.93 0.58-73.93 0.24L-73.93-1.20C-73.93-1.54-74.04-1.74-74.47-1.74L-79.44-1.74L-79.44-3.76L-73.84-3.76C-73.41-3.76-73.30-3.97-73.30-4.30L-73.30-5.84C-73.30-6.17-73.41-6.38-73.84-6.38L-81.83-6.38C-82.26-6.38-82.37-6.17-82.37-5.84L-82.37 5.29C-82.37 5.62-82.26 5.83-81.83 5.83L-73.52 5.83C-73.10 5.83-72.99 5.62-72.99 5.29L-72.99 3.77C-72.99 3.43-73.10 3.23-73.52 3.23Z"/><path fill="#646464" opacity="1" d="M-53.33 5.23L-55.94 1.43C-54.79 1.04-53.36-0.31-53.36-2.26C-53.36-3.45-53.75-4.50-54.44-5.17C-55.22-5.95-56.11-6.36-58.13-6.36L-62.80-6.36C-63.23-6.36-63.32-6.15-63.32-5.82L-63.32 5.29C-63.32 5.71-63.14 5.83-62.80 5.83L-60.97 5.83C-60.63 5.83-60.43 5.71-60.43 5.29L-60.43-3.76L-57.96-3.76C-57.00-3.76-56.26-3.15-56.26-2.19C-56.26-1.31-57.11-0.68-58.02-0.68L-58.39-0.68C-58.82-0.68-58.93-0.48-58.93-0.15L-58.93 1.34C-58.93 1.86-58.89 2.06-58.72 2.28L-56.72 5.27C-56.46 5.66-56.24 5.83-55.79 5.83L-53.61 5.83C-53.25 5.83-53.16 5.49-53.33 5.23Z"/><path fill="#646464" opacity="1" d="M-34.26-6.38L-36.27-6.38C-36.69-6.38-36.88-6.32-37.12-5.82L-39.21-1.83L-41.38-5.82C-41.64-6.32-41.83-6.38-42.26-6.38L-44.39-6.38C-44.74-6.38-44.78-6.06-44.69-5.86L-40.72 1.25L-40.72 5.29C-40.72 5.71-40.53 5.83-40.18 5.83L-38.32 5.83C-37.99 5.83-37.79 5.71-37.79 5.29L-37.79 1.25L-33.97-5.86C-33.87-6.06-33.91-6.38-34.26-6.38Z"/><path fill="#646464" opacity="1" d=""/><path fill="#646464" opacity="1" d="M-7.80-6.38L-11.95-6.38C-12.38-6.38-12.49-6.17-12.49-5.84L-12.49 5.29C-12.49 5.62-12.38 5.83-11.95 5.83L-7.80 5.83C-5.59 5.83-2.81 4.56-2.81 1.65L-2.81-2.20C-2.81-5.10-5.59-6.38-7.80-6.38ZM-5.72 1.39C-5.72 2.58-6.58 3.25-7.80 3.25L-9.58 3.25L-9.58-3.80L-7.80-3.80C-6.58-3.80-5.72-3.11-5.72-1.94Z"/><path fill="#646464" opacity="1" d="M17.48 5.31L13.38-5.80C13.21-6.19 13.03-6.38 12.62-6.38L10.84-6.38C10.43-6.38 10.23-6.19 10.08-5.80L5.96 5.31C5.87 5.53 5.87 5.83 6.28 5.83L8.22 5.83C8.63 5.83 8.78 5.71 8.93 5.27L9.45 3.80L13.99 3.80L14.51 5.27C14.66 5.71 14.81 5.83 15.22 5.83L17.16 5.83C17.57 5.83 17.57 5.53 17.48 5.31ZM10.34 1.21L11.73-2.89L13.12 1.21Z"/><path fill="#646464" opacity="1" d="M34.87-6.38L32.87-6.38C32.44-6.38 32.26-6.32 32.02-5.82L29.92-1.83L27.75-5.82C27.49-6.32 27.31-6.38 26.88-6.38L24.75-6.38C24.40-6.38 24.36-6.06 24.45-5.86L28.42 1.25L28.42 5.29C28.42 5.71 28.60 5.83 28.96 5.83L30.81 5.83C31.15 5.83 31.35 5.71 31.35 5.29L31.35 1.25L35.17-5.86C35.26-6.06 35.23-6.38 34.87-6.38Z"/><path fill="#646464" opacity="1" d=""/><path fill="#646464" opacity="1" d="M65.34-0.50C65.51-0.57 66.70-1.17 66.70-3.04C66.70-4.78 65.40-6.40 62.38-6.40L57.18-6.40C56.76-6.40 56.65-6.19 56.65-5.86L56.65 5.29C56.65 5.62 56.76 5.83 57.18 5.83L62.64 5.83C65.21 5.83 67.05 4.62 67.05 2.27C67.05 0.26 65.49-0.44 65.34-0.50ZM62.67 3.19L59.56 3.19L59.56-3.78L62.38-3.78C63.34-3.78 63.91-3.58 63.91-2.74C63.91-2.02 63.45-1.63 62.38-1.63L62.38-1.63L62.13-1.63C61.71-1.63 61.60-1.43 61.60-1.09L61.60 0.32C61.60 0.65 61.71 0.86 62.13 0.86L62.56 0.86C63.45 0.86 64.10 1.12 64.10 1.99C64.10 2.82 63.58 3.19 62.67 3.19Z"/><path fill="#646464" opacity="1" d="M85.65 3.23L79.73 3.23L79.73 0.78L84.70 0.78C85.13 0.78 85.24 0.58 85.24 0.24L85.24-1.20C85.24-1.54 85.13-1.74 84.70-1.74L79.73-1.74L79.73-3.76L85.33-3.76C85.76-3.76 85.87-3.97 85.87-4.30L85.87-5.84C85.87-6.17 85.76-6.38 85.33-6.38L77.34-6.38C76.91-6.38 76.80-6.17 76.80-5.84L76.80 5.29C76.80 5.62 76.91 5.83 77.34 5.83L85.65 5.83C86.08 5.83 86.19 5.62 86.19 5.29L86.19 3.77C86.19 3.43 86.08 3.23 85.65 3.23Z"/><path fill="#646464" opacity="1" d="M104.10-6.38L95.50-6.38C95.07-6.38 94.96-6.17 94.96-5.84L94.96-4.30C94.96-3.97 95.07-3.76 95.50-3.76L98.35-3.76L98.35 5.29C98.35 5.71 98.56 5.83 98.89 5.83L100.73 5.83C101.06 5.83 101.26 5.71 101.26 5.29L101.26-3.76L104.10-3.76C104.53-3.76 104.64-3.97 104.64-4.30L104.64-5.84C104.64-6.17 104.53-6.38 104.10-6.38Z"/><path fill="#646464" opacity="1" d="M122.17-6.38L113.56-6.38C113.13-6.38 113.02-6.17 113.02-5.84L113.02-4.30C113.02-3.97 113.13-3.76 113.56-3.76L116.42-3.76L116.42 5.29C116.42 5.71 116.62 5.83 116.95 5.83L118.79 5.83C119.12 5.83 119.33 5.71 119.33 5.29L119.33-3.76L122.17-3.76C122.59-3.76 122.70-3.97 122.70-4.30L122.70-5.84C122.70-6.17 122.59-6.38 122.17-6.38Z"/><path fill="#646464" opacity="1" d="M140.82 3.23L134.91 3.23L134.91 0.78L139.88 0.78C140.30 0.78 140.41 0.58 140.41 0.24L140.41-1.20C140.41-1.54 140.30-1.74 139.88-1.74L134.91-1.74L134.91-3.76L140.51-3.76C140.93-3.76 141.04-3.97 141.04-4.30L141.04-5.84C141.04-6.17 140.93-6.38 140.51-6.38L132.51-6.38C132.09-6.38 131.98-6.17 131.98-5.84L131.98 5.29C131.98 5.62 132.09 5.83 132.51 5.83L140.82 5.83C141.25 5.83 141.36 5.62 141.36 5.29L141.36 3.77C141.36 3.43 141.25 3.23 140.82 3.23Z"/><path fill="#646464" opacity="1" d="M161.02 5.23L158.40 1.43C159.55 1.04 160.98-0.31 160.98-2.26C160.98-3.45 160.59-4.50 159.90-5.17C159.13-5.95 158.24-6.36 156.21-6.36L151.54-6.36C151.11-6.36 151.02-6.15 151.02-5.82L151.02 5.29C151.02 5.71 151.21 5.83 151.54 5.83L153.38 5.83C153.71 5.83 153.91 5.71 153.91 5.29L153.91-3.76L156.38-3.76C157.35-3.76 158.09-3.15 158.09-2.19C158.09-1.31 157.23-0.68 156.33-0.68L155.95-0.68C155.53-0.68 155.42-0.48 155.42-0.15L155.42 1.34C155.42 1.86 155.45 2.06 155.62 2.28L157.62 5.27C157.88 5.66 158.11 5.83 158.55 5.83L160.74 5.83C161.09 5.83 161.18 5.49 161.02 5.23Z"/></g><g transform="matrix(0.75 0 0 0.75 396.5 250)"  >
<g style=""   >
		<g transform="matrix(1.3333333333333335 0 0 1.3333333333333335 -6.376376359467573 24.903620000000014)"  >
<path style="stroke: none; stroke-width: 1; stroke-dasharray: none; stroke-linecap: butt; stroke-dashoffset: 0; stroke-linejoin: miter; stroke-miterlimit: 4; fill: rgb(100,100,100); fill-rule: nonzero; opacity: 1;"  transform=" translate(-44.717717730399315, -68.177715)" d="m 44.941 72.914 v 1.8086 c 0 0.12109 0.046875 0.23047 0.13281 0.31641 c 0.082031 0.082032 0.19531 0.12891 0.31641 0.12891 c 0.24609 0 0.44531 -0.19922 0.44531 -0.44531 v -1.8086 c 0 -0.32422 0.26172 -0.58594 0.58594 -0.58594 h 2.7656 v -4.0664 h -1.2227 c -0.89453 0 -1.6172 -0.73047 -1.6172 -1.625 c 0 -0.42969 0.16797 -0.83594 0.47266 -1.1445 c 0.30859 -0.30859 0.71484 -0.47656 1.1445 -0.47656 h 1.2227 v -3.8281 h -0.027344 c -4.668 0.28906 -8.4844 4.0195 -8.8789 8.6758 c -0.070312 0.83594 -0.023438 1.6641 0.11328 2.4648 h 3.9648 c 0.32031 0 0.58203 0.26562 0.58203 0.58594 z" stroke-linecap="round" />
</g>
		<g transform="matrix(1.3333333333333335 0 0 1.3333333333333335 -9.632999999999997 -4.318000000000001)"  >
<path style="stroke: none; stroke-width: 1; stroke-dasharray: none; stroke-linecap: butt; stroke-dashoffset: 0; stroke-linejoin: miter; stroke-miterlimit: 4; fill: rgb(100,100,100); fill-rule: nonzero; opacity: 1;"  transform=" translate(-42.27525, -46.2615)" d="m 38.285 58.406 c 2.3594 -1.5938 5.0664 -2.707 7.9805 -3.207 v -21.082 h -7.9805 z" stroke-linecap="round" />
</g>
		<g transform="matrix(1.3333333333333335 0 0 1.3333333333333335 -4.096526666666671 38.48635333333336)"  >
<path style="stroke: none; stroke-width: 1; stroke-dasharray: none; stroke-linecap: butt; stroke-dashoffset: 0; stroke-linejoin: miter; stroke-miterlimit: 4; fill: rgb(100,100,100); fill-rule: nonzero; opacity: 1;"  transform=" translate(-46.427605, -78.364765)" d="m 45.578 83.23 h 3.7617 v -4.7422 c 0 -0.32422 0.26172 -0.58594 0.58594 -0.58594 h 1.8047 c 0.11719 0 0.23438 -0.046875 0.31641 -0.12891 c 0.085937 -0.085938 0.13281 -0.19531 0.13281 -0.31641 c 0 -0.24609 -0.19922 -0.44531 -0.44531 -0.44531 h -1.8047 c -0.32422 0 -0.58594 -0.26172 -0.58594 -0.58594 v -2.9219 h -2.3359 v 1.2227 c 0 0.89453 -0.72656 1.6172 -1.6172 1.6172 c -0.42969 0 -0.83594 -0.16797 -1.1445 -0.47266 c -0.30859 -0.30859 -0.47266 -0.71484 -0.47266 -1.1484 v -1.2227 h -3.0977 c 0.49609 1.6211 1.4141 3.0977 2.7148 4.2734 c 1.3906 1.2539 2.1914 3.0469 2.1914 4.918 z" stroke-linecap="round" />
</g>
		<g transform="matrix(1.3333333333333335 0 0 1.3333333333333335 -29.653 9.356666666666671)"  >
<path style="stroke: none; stroke-width: 1; stroke-dasharray: none; stroke-linecap: butt; stroke-dashoffset: 0; stroke-linejoin: miter; stroke-miterlimit: 4; fill: rgb(100,100,100); fill-rule: nonzero; opacity: 1;"  transform=" translate(-27.26025, -56.5175)" d="m 23.27 48.156 h 7.9805 v 16.723 h -7.9805 z" stroke-linecap="round" />
</g>
		<g transform="matrix(1.3333333333333335 0 0 1.3333333333333335 3.6460933333333507 41.12224666666665)"  >
<path style="stroke: none; stroke-width: 1; stroke-dasharray: none; stroke-linecap: butt; stroke-dashoffset: 0; stroke-linejoin: miter; stroke-miterlimit: 4; fill: rgb(100,100,100); fill-rule: nonzero; opacity: 1;"  transform=" translate(-52.234570000000005, -80.34168499999998)" d="m 54.758 72.914 v -1.8047 c 0 -0.12109 -0.046874 -0.23047 -0.13281 -0.31641 c -0.082031 -0.082031 -0.19922 -0.12891 -0.31641 -0.12891 c -0.24609 0 -0.44531 0.19922 -0.44531 0.44531 v 1.8086 c 0 0.32422 -0.26172 0.58594 -0.58594 0.58594 h -2.7656 v 2.3359 h 1.2188 c 0.89453 0 1.6172 0.72656 1.6172 1.6172 c 0 0.43359 -0.16797 0.83984 -0.47266 1.1445 c -0.30078 0.30078 -0.71875 0.47266 -1.1445 0.47266 h -1.2188 v 4.1562 h 1.3594 v 1.1719 h -6.2969 v 1.0898 h 6.2969 v 1.1719 h -6.2969 v 1.0898 h 6.2969 v 1.1719 h -6.2891 c 0.03125 0.60938 0.53125 1.0938 1.1445 1.0938 h 6.1094 c 0.63672 0 1.1523 -0.51562 1.1523 -1.1523 v -6.1719 c 0 -1.8672 0.79688 -3.6602 2.1914 -4.918 c 1.3008 -1.1758 2.2188 -2.6523 2.7148 -4.2734 l -3.5508 -0.003906 c -0.32422 0 -0.58594 -0.26172 -0.58594 -0.58594 z" stroke-linecap="round" />
</g>
		<g transform="matrix(1.3333333333333335 0 0 1.3333333333333335 10.38833333333334 2.3146666666666764)"  >
<path style="stroke: none; stroke-width: 1; stroke-dasharray: none; stroke-linecap: butt; stroke-dashoffset: 0; stroke-linejoin: miter; stroke-miterlimit: 4; fill: rgb(100,100,100); fill-rule: nonzero; opacity: 1;"  transform=" translate(-57.291250000000005, -51.236000000000004)" d="m 53.301 55.195 c 2.9141 0.50391 5.6211 1.6172 7.9805 3.207 v -14.332 h -7.9805 z" stroke-linecap="round" />
</g>
		<g transform="matrix(1.3333333333333335 0 0 1.3333333333333335 5.221760035831135 23.017666666666678)"  >
<path style="stroke: none; stroke-width: 1; stroke-dasharray: none; stroke-linecap: butt; stroke-dashoffset: 0; stroke-linejoin: miter; stroke-miterlimit: 4; fill: rgb(100,100,100); fill-rule: nonzero; opacity: 1;"  transform=" translate(-53.41632002687335, -66.76325)" d="m 50.406 61.191 h -0.046875 v 4.418 c 0 0.32422 -0.26172 0.58594 -0.58594 0.58594 h -1.8086 c -0.11719 0 -0.23047 0.046876 -0.31641 0.13281 c -0.082032 0.082031 -0.13281 0.19922 -0.13281 0.31641 c 0 0.25 0.20312 0.45312 0.44531 0.45312 h 1.8086 c 0.32422 0 0.58594 0.26172 0.58594 0.58594 v 4.6523 h 2.3359 v -1.2266 c 0 -0.89453 0.72656 -1.6172 1.6172 -1.6172 c 0.42969 0 0.83594 0.16797 1.1445 0.47266 c 0.30859 0.30859 0.47266 0.71484 0.47266 1.1484 v 1.2227 h 3.2461 c 0.13672 -0.80078 0.18359 -1.625 0.11328 -2.4648 c -0.39062 -4.6602 -4.2109 -8.3906 -8.8789 -8.6797 z" stroke-linecap="round" />
</g>
		<g transform="matrix(1.3333333333333335 0 0 1.3333333333333335 30.413666666666668 -4.859333333333346)"  >
<path style="stroke: none; stroke-width: 1; stroke-dasharray: none; stroke-linecap: butt; stroke-dashoffset: 0; stroke-linejoin: miter; stroke-miterlimit: 4; fill: rgb(100,100,100); fill-rule: nonzero; opacity: 1;"  transform=" translate(-72.31025, -45.85549999999999)" d="m 68.32 26.832 h 7.9805 v 38.047 h -7.9805 z" stroke-linecap="round" />
</g>
		<g transform="matrix(1.3333333333333335 0 0 1.3333333333333335 0.3800000000000061 34.65599999999998)"  >
<path style="stroke: none; stroke-width: 1; stroke-dasharray: none; stroke-linecap: butt; stroke-dashoffset: 0; stroke-linejoin: miter; stroke-miterlimit: 4; fill: rgb(100,100,100); fill-rule: nonzero; opacity: 1;"  transform=" translate(-49.785, -75.49199999999999)" d="m 49.785 56.062 c -10.715 0 -19.43 8.7148 -19.43 19.43 c 0 10.715 8.7148 19.43 19.43 19.43 s 19.43 -8.7148 19.43 -19.43 c -0.003906 -10.715 -8.7188 -19.43 -19.43 -19.43 z m 7.1797 22.582 c -1.1445 1.0352 -1.8047 2.5078 -1.8047 4.0469 v 6.1719 c 0 1.2812 -1.043 2.3242 -2.3242 2.3242 h -6.1055 c -1.2812 0 -2.3242 -1.043 -2.3242 -2.3242 v -6.1719 c 0 -1.5391 -0.65625 -3.0117 -1.8047 -4.0469 c -2.5039 -2.2617 -3.7773 -5.4961 -3.4961 -8.8789 c 0.44531 -5.2305 4.7344 -9.4219 9.9805 -9.7461 c 0.23047 -0.011719 0.46094 -0.023437 0.68359 -0.023437 v 0.58594 h 0.019531 v -0.58594 c 0.22266 0 0.45313 0.007812 0.68359 0.023437 c 5.2461 0.32422 9.5391 4.5156 9.9805 9.7461 c 0.28906 3.3828 -0.98438 6.6211 -3.4883 8.8789 z" stroke-linecap="round" />
</g>
		<g transform="matrix(1.3333333333333335 0 0 1.3333333333333335 2.1349484161779273 -38.571169333333344)"  >
<path style="stroke: none; stroke-width: 1; stroke-dasharray: none; stroke-linecap: butt; stroke-dashoffset: 0; stroke-linejoin: miter; stroke-miterlimit: 4; fill: rgb(100,100,100); fill-rule: nonzero; opacity: 1;"  transform=" translate(-51.101211312133444, -20.571623)" d="m 27.598 36.066 c 0.57422 0 1.1133 -0.22266 1.5195 -0.62891 l 13.637 -13.637 c 0.23438 -0.23438 0.63672 -0.23438 0.87109 0 l 8.4531 8.4531 c 0.67578 0.67578 1.8516 0.67578 2.5273 0 l 17.68 -17.68 l 0.14453 3.1289 c 0.054687 1.1523 0.99609 2.0547 2.1484 2.0547 c 0.007813 0 0.09375 -0.003906 0.10156 -0.003906 c 1.1836 -0.054687 2.1016 -1.0625 2.0508 -2.25 l -0.43359 -9.4297 c -0.015625 -0.30469 -0.25391 -0.54297 -0.55859 -0.55859 l -9.4219 -0.43359 l -0.12109 -0.003906 c -1.1406 0 -2.0781 0.90234 -2.1328 2.0547 c -0.050781 1.1836 0.86719 2.1953 2.0508 2.2461 l 3.1289 0.14453 l -15.465 15.469 c -0.23047 0.23047 -0.63672 0.23047 -0.86719 0 l -8.4531 -8.4531 c -0.67578 -0.67578 -1.8516 -0.67578 -2.5273 0 l -15.773 15.77 c -0.83203 0.83203 -0.92188 2.1445 -0.20312 2.9922 c 0.41016 0.48828 1.0078 0.76562 1.6445 0.76562 z" stroke-linecap="round" />
</g>
</g>
</g>
</svg>